<svg width="192" height="192" viewBox="0 0 192 192" fill="none" xmlns="http://www.w3.org/2000/svg">
  <!-- Background circle with gradient -->
  <circle cx="96" cy="96" r="90" fill="url(#gradient)" stroke="#2563eb" stroke-width="6"/>
  
  <!-- Book stack -->
  <rect x="48" y="84" width="60" height="12" rx="6" fill="#fbbf24"/>
  <rect x="54" y="96" width="54" height="12" rx="6" fill="#3b82f6"/>
  <rect x="60" y="108" width="48" height="12" rx="6" fill="#10b981"/>
  
  <!-- Open book on top -->
  <path d="M72 60 L96 72 L120 60 L120 84 L96 96 L72 84 Z" fill="#f8fafc" stroke="#475569" stroke-width="3"/>
  <line x1="96" y1="72" x2="96" y2="96" stroke="#475569" stroke-width="3"/>
  
  <!-- Book pages lines -->
  <line x1="78" y1="66" x2="90" y2="70" stroke="#94a3b8" stroke-width="1.5"/>
  <line x1="78" y1="72" x2="90" y2="76" stroke="#94a3b8" stroke-width="1.5"/>
  <line x1="102" y1="70" x2="114" y2="66" stroke="#94a3b8" stroke-width="1.5"/>
  <line x1="102" y1="76" x2="114" y2="72" stroke="#94a3b8" stroke-width="1.5"/>
  
  <!-- Bookmark -->
  <rect x="114" y="48" width="12" height="36" fill="#ef4444"/>
  <path d="M114 84 L120 78 L126 84 L126 48 L114 48 Z" fill="#ef4444"/>
  
  <!-- Hassan Muse initials -->
  <text x="96" y="150" text-anchor="middle" font-family="Arial, sans-serif" font-size="24" font-weight="bold" fill="#1e293b">HM</text>
  
  <!-- Sparkle effects -->
  <circle cx="42" cy="48" r="6" fill="#fbbf24" opacity="0.8"/>
  <circle cx="150" cy="72" r="6" fill="#3b82f6" opacity="0.8"/>
  <circle cx="36" cy="144" r="6" fill="#10b981" opacity="0.8"/>
  <circle cx="156" cy="156" r="6" fill="#f59e0b" opacity="0.8"/>
  
  <!-- Additional decorative elements -->
  <path d="M30 30 L36 24 L42 30 L36 36 Z" fill="#8b5cf6" opacity="0.6"/>
  <path d="M162 30 L168 24 L174 30 L168 36 Z" fill="#06b6d4" opacity="0.6"/>
  
  <!-- Gradient definition -->
  <defs>
    <linearGradient id="gradient" x1="0%" y1="0%" x2="100%" y2="100%">
      <stop offset="0%" style="stop-color:#3b82f6;stop-opacity:0.15" />
      <stop offset="50%" style="stop-color:#8b5cf6;stop-opacity:0.1" />
      <stop offset="100%" style="stop-color:#06b6d4;stop-opacity:0.15" />
    </linearGradient>
  </defs>
</svg>