<svg width="32" height="32" viewBox="0 0 32 32" fill="none" xmlns="http://www.w3.org/2000/svg">
  <!-- Background circle with gradient -->
  <circle cx="16" cy="16" r="15" fill="url(#gradient)" stroke="#2563eb" stroke-width="2"/>
  
  <!-- Book stack -->
  <rect x="8" y="14" width="10" height="2" rx="1" fill="#fbbf24"/>
  <rect x="9" y="16" width="9" height="2" rx="1" fill="#3b82f6"/>
  <rect x="10" y="18" width="8" height="2" rx="1" fill="#10b981"/>
  
  <!-- Open book on top -->
  <path d="M12 10 L16 12 L20 10 L20 14 L16 16 L12 14 Z" fill="#f8fafc" stroke="#475569" stroke-width="1"/>
  <line x1="16" y1="12" x2="16" y2="16" stroke="#475569" stroke-width="1"/>
  
  <!-- Bookmark -->
  <rect x="19" y="8" width="2" height="6" fill="#ef4444"/>
  <path d="M19 14 L20 13 L21 14 L21 8 L19 8 Z" fill="#ef4444"/>
  
  <!-- Sparkle effects -->
  <circle cx="7" cy="8" r="1" fill="#fbbf24" opacity="0.8"/>
  <circle cx="25" cy="12" r="1" fill="#3b82f6" opacity="0.8"/>
  <circle cx="6" cy="24" r="1" fill="#10b981" opacity="0.8"/>
  <circle cx="26" cy="26" r="1" fill="#f59e0b" opacity="0.8"/>
  
  <!-- Gradient definition -->
  <defs>
    <linearGradient id="gradient" x1="0%" y1="0%" x2="100%" y2="100%">
      <stop offset="0%" style="stop-color:#3b82f6;stop-opacity:0.1" />
      <stop offset="100%" style="stop-color:#8b5cf6;stop-opacity:0.2" />
    </linearGradient>
  </defs>
</svg>